<?xml version="1.0" encoding="iso-8859-1"?>
<!-- Generator: Adobe Illustrator 19.0.0, SVG Export Plug-In . SVG Version: 6.00 Build 0)  -->
<svg version="1.1" id="Capa_1" xmlns="http://www.w3.org/2000/svg" xmlns:xlink="http://www.w3.org/1999/xlink" x="0px" y="0px"
	 viewBox="0 0 512 512" style="enable-background:new 0 0 512 512;" xml:space="preserve">
<path style="fill:#FED42D;" d="M256.002,0c-61.428,0-111.4,49.974-111.4,111.399c0,61.427,49.973,111.4,111.4,111.4
	c61.424,0,111.398-49.974,111.398-111.4C367.4,49.974,317.426,0,256.002,0z"/>
<path style="fill:#4DBBEB;" d="M256.002,289.2c-114.584,0-207.803,93.219-207.803,207.8c0,8.284,6.717,15,15,15h385.602
	c8.283,0,15-6.716,15-15C463.801,382.419,370.582,289.2,256.002,289.2z"/>
<path style="fill:#FCBF29;" d="M367.4,111.399C367.4,49.974,317.426,0,256.002,0v222.8C317.426,222.8,367.4,172.826,367.4,111.399z"
	/>
<path style="fill:#2488FF;" d="M256.002,289.2V512h192.799c8.283,0,15-6.716,15-15C463.801,382.419,370.582,289.2,256.002,289.2z"/>
<g>
</g>
<g>
</g>
<g>
</g>
<g>
</g>
<g>
</g>
<g>
</g>
<g>
</g>
<g>
</g>
<g>
</g>
<g>
</g>
<g>
</g>
<g>
</g>
<g>
</g>
<g>
</g>
<g>
</g>
</svg>
