<?xml version="1.0"?>
<svg xmlns="http://www.w3.org/2000/svg" viewBox="0 0 64 64" width="512" height="512"><g id="Shop"><path d="M61.99,20.047,59.6,6.02A5,5,0,0,0,54.709,2H9.291A5.007,5.007,0,0,0,4.4,6.047L2.015,20.02A4.985,4.985,0,0,0,6,25.911V61a1,1,0,0,0,1,1H57a1,1,0,0,0,1-1V25.911a4.985,4.985,0,0,0,3.99-5.864ZM57.63,6.384,59.271,16H53V4h1.709A2.99,2.99,0,0,1,57.63,6.384ZM13,16V4h6V16ZM21,4h6V16H21Zm8,0h6V16H29Zm8,0h6V16H37Zm8,0h6V16H45ZM6.365,6.411A3,3,0,0,1,9.291,4H11V16H4.729ZM16,40V34H26v6Zm6,2v2H20V42Zm8,4v2H12V46Zm-6,4v5H18V50Zm-6,7h6v3H18Zm8-7h2V60H26ZM16,50V60H14V50Zm27,0H41V48h2Zm2-2h2v2H45Zm3-2H45V42h7v8H49V47A1,1,0,0,0,48,46Zm4-6H50V38h2Zm0-4H49a1,1,0,0,0-1,1v3H45V32h7Zm-9,4H40V35a1,1,0,0,0-1-1H36V32h7Zm-7-4h2v4H36Zm0,6h7v4H40a1,1,0,0,0-1,1v3H36Zm0,10h7v8H40V55a1,1,0,0,0-1-1H36Zm11,8H45V56h2ZM36,56h2v4H36Zm13,4V55a1,1,0,0,0-1-1H45V52h7v8Zm5,0V31a1,1,0,0,0-1-1H35a1,1,0,0,0-1,1V60H30V50h1a1,1,0,0,0,1-1V45a1,1,0,0,0-1-1H24V42h3a1,1,0,0,0,1-1V33a1,1,0,0,0-1-1H15a1,1,0,0,0-1,1v8a1,1,0,0,0,1,1h3v2H11a1,1,0,0,0-1,1v4a1,1,0,0,0,1,1h1V60H8V26a4.994,4.994,0,0,0,4-2,5.017,5.017,0,0,0,5.033,1.9A4.907,4.907,0,0,0,20,24.044a4.9,4.9,0,0,0,2.968,1.872,5.009,5.009,0,0,0,5.024-1.882,4.906,4.906,0,0,0,2.976,1.882,5.009,5.009,0,0,0,5.024-1.882,4.906,4.906,0,0,0,2.976,1.882,5.224,5.224,0,0,0,1.03.1,5.008,5.008,0,0,0,4.013-2.01A5.014,5.014,0,0,0,49.031,25.9a4.9,4.9,0,0,0,2.98-1.874A4.977,4.977,0,0,0,55.983,26H56V60Zm5.4-37.09A2.965,2.965,0,0,1,57.1,24H55.983A2.99,2.99,0,0,1,53,21a1,1,0,0,0-2,0,2.946,2.946,0,0,1-2.364,2.935A3,3,0,0,1,45,21a1,1,0,0,0-2,0v0a3.016,3.016,0,0,1-1.109,2.344A3,3,0,0,1,37,21a1,1,0,0,0-2,0v0a3.016,3.016,0,0,1-1.109,2.344A3,3,0,0,1,29,21a1,1,0,0,0-2,0v0a3.016,3.016,0,0,1-1.109,2.344A3,3,0,0,1,21,21a1,1,0,0,0-2,0,2.946,2.946,0,0,1-2.364,2.935A3,3,0,0,1,13,21a1,1,0,0,0-2,0,3,3,0,0,1-3,3H6.9a2.965,2.965,0,0,1-2.3-1.09,3.021,3.021,0,0,1-.62-2.526L4.387,18H59.613l.411,2.411A3,3,0,0,1,59.4,22.91Z"/></g></svg>
