<svg id="svg" version="1.1" xmlns="http://www.w3.org/2000/svg" xmlns:xlink="http://www.w3.org/1999/xlink" width="400" height="357.59562841530055" viewBox="0, 0, 400,357.59562841530055"><g id="svgg"><path id="path0" d="M399.732 51.699 C 399.736 52.487,399.810 52.766,399.895 52.321 C 399.981 51.876,399.978 51.232,399.888 50.890 C 399.798 50.548,399.728 50.912,399.732 51.699 M176.783 56.916 C 170.107 58.228,165.011 63.725,163.697 71.032 C 163.380 72.796,162.725 76.413,162.240 79.070 C 161.756 81.726,160.629 88.072,159.735 93.170 C 158.842 98.269,158.027 102.576,157.925 102.741 C 157.823 102.906,150.786 103.046,142.287 103.052 C 124.747 103.065,122.550 103.244,118.966 104.958 C 106.687 110.830,106.687 128.884,118.966 134.756 C 122.468 136.430,124.820 136.649,139.474 136.662 L 152.114 136.673 151.920 137.657 C 151.813 138.198,151.151 141.941,150.448 145.975 C 149.745 150.009,148.860 155.000,148.482 157.066 C 148.103 159.132,147.462 162.789,147.057 165.193 C 146.652 167.596,146.227 169.804,146.114 170.100 C 145.935 170.566,143.526 170.650,127.963 170.739 L 110.018 170.841 107.318 172.161 C 93.628 178.854,95.116 198.604,109.660 203.257 C 110.677 203.582,115.287 203.773,125.581 203.915 L 140.072 204.114 139.965 205.009 C 139.832 206.116,137.676 218.473,136.438 225.224 C 134.809 234.097,135.574 238.625,139.486 243.259 C 147.076 252.253,160.865 250.825,166.805 240.429 C 167.889 238.533,168.516 236.085,169.784 228.801 C 170.298 225.850,171.199 220.698,171.787 217.352 C 172.375 214.007,173.132 209.660,173.470 207.692 L 174.084 204.114 190.978 204.022 C 204.373 203.948,207.871 204.022,207.871 204.379 C 207.872 204.627,207.628 206.118,207.330 207.692 C 201.898 236.409,202.154 240.074,209.999 245.836 C 221.098 253.987,234.263 247.561,236.833 232.737 C 237.208 230.572,238.493 223.289,239.688 216.551 C 240.883 209.814,241.860 204.227,241.860 204.137 C 241.860 204.047,249.790 203.919,259.481 203.853 C 275.660 203.743,277.248 203.679,278.891 203.063 C 293.031 197.761,294.101 178.616,280.616 172.177 L 277.818 170.841 262.970 170.662 L 248.122 170.483 248.209 169.052 C 248.258 168.265,248.869 164.401,249.567 160.465 C 250.265 156.530,251.235 151.055,251.723 148.301 C 252.211 145.546,252.878 141.802,253.204 139.982 L 253.798 136.673 269.386 136.662 C 287.238 136.649,289.295 136.480,292.844 134.730 C 298.874 131.758,301.792 126.909,301.784 119.875 L 301.778 115.385 300.390 112.624 C 296.210 104.308,292.581 103.070,272.333 103.052 L 259.693 103.041 259.885 102.057 C 259.991 101.516,260.578 98.175,261.189 94.633 C 261.799 91.091,262.685 86.100,263.156 83.542 C 265.044 73.302,264.998 70.526,262.865 66.063 C 258.004 55.891,244.367 53.482,236.344 61.377 C 232.564 65.097,232.213 66.171,229.333 82.826 C 228.721 86.369,227.839 91.360,227.374 93.918 C 226.909 96.476,226.425 99.293,226.297 100.179 C 225.839 103.364,227.797 103.041,208.920 103.041 C 194.441 103.041,192.129 102.969,192.129 102.519 C 192.129 101.988,193.933 91.570,195.602 82.469 C 196.918 75.289,197.050 71.268,196.068 68.328 C 193.325 60.123,185.134 55.276,176.783 56.916 M219.548 138.193 C 219.422 139.030,218.916 141.968,218.421 144.723 C 217.504 149.839,215.855 159.209,214.658 166.104 C 214.291 168.222,213.892 170.114,213.772 170.308 C 213.427 170.867,180.423 170.785,180.236 170.225 C 180.156 169.984,180.296 168.736,180.547 167.452 C 181.003 165.124,181.996 159.534,184.427 145.617 C 185.132 141.583,185.787 137.920,185.884 137.478 L 186.060 136.673 202.918 136.673 L 219.775 136.673 219.548 138.193 M399.732 255.635 C 399.736 256.422,399.810 256.702,399.895 256.257 C 399.981 255.812,399.978 255.168,399.888 254.826 C 399.798 254.484,399.728 254.848,399.732 255.635 M293.806 354.025 C 294.233 354.517,294.639 354.919,294.706 354.919 C 294.773 354.919,294.565 354.517,294.243 354.025 C 293.920 353.533,293.515 353.131,293.342 353.131 C 293.169 353.131,293.378 353.533,293.806 354.025 " stroke="none" fill="#4c5c7b" fill-rule="evenodd"></path><path id="path1" d="M57.066 0.525 C 39.214 3.822,25.472 19.939,21.212 42.576 C 20.607 45.792,20.572 51.699,20.572 152.594 L 20.572 259.213 21.369 263.512 C 25.372 285.133,38.211 300.717,55.548 304.998 L 59.213 305.903 162.911 305.903 L 266.610 305.903 267.015 306.977 C 267.238 307.567,267.555 308.050,267.720 308.050 C 267.886 308.050,267.921 308.211,267.800 308.408 C 267.678 308.605,267.719 308.766,267.891 308.766 C 268.231 308.766,269.579 311.280,269.474 311.717 C 269.439 311.865,269.579 311.986,269.786 311.986 C 269.993 311.986,270.331 312.469,270.537 313.059 C 270.742 313.649,271.066 314.132,271.255 314.132 C 271.444 314.132,271.499 314.293,271.377 314.490 C 271.256 314.687,271.294 314.848,271.462 314.848 C 271.630 314.848,272.066 315.572,272.431 316.458 C 272.797 317.343,273.242 318.068,273.420 318.068 C 273.599 318.068,273.646 318.229,273.524 318.426 C 273.403 318.623,273.460 318.784,273.652 318.784 C 273.844 318.784,274.278 319.508,274.617 320.394 C 274.955 321.279,275.351 322.004,275.497 322.004 C 275.643 322.004,275.963 322.487,276.208 323.077 C 276.452 323.667,276.803 324.150,276.988 324.150 C 277.172 324.150,277.230 324.300,277.117 324.483 C 277.004 324.667,277.078 324.919,277.281 325.045 C 277.484 325.170,277.558 325.423,277.444 325.606 C 277.331 325.789,277.418 325.939,277.636 325.939 C 277.855 325.939,278.202 326.422,278.408 327.013 C 278.614 327.603,278.937 328.086,279.126 328.086 C 279.315 328.086,279.382 328.229,279.274 328.403 C 279.166 328.578,279.309 328.912,279.592 329.147 C 279.875 329.382,280.288 330.125,280.510 330.798 C 280.732 331.471,281.038 332.021,281.190 332.021 C 281.342 332.021,281.767 332.706,282.136 333.542 C 282.505 334.378,282.972 335.181,283.174 335.325 C 283.377 335.470,283.391 335.591,283.205 335.594 C 283.020 335.597,283.116 335.801,283.418 336.047 C 283.721 336.292,284.185 337.057,284.450 337.746 C 284.716 338.435,285.089 339.105,285.281 339.235 C 285.635 339.476,286.527 341.088,288.151 344.421 C 288.645 345.436,289.222 346.373,289.432 346.503 C 289.643 346.634,289.722 346.890,289.609 347.073 C 289.496 347.256,289.558 347.406,289.747 347.406 C 289.936 347.406,290.259 347.889,290.465 348.479 C 290.671 349.070,291.018 349.553,291.237 349.553 C 291.455 349.553,291.535 349.714,291.413 349.911 C 291.292 350.107,291.323 350.268,291.484 350.268 C 291.644 350.268,292.004 350.785,292.284 351.417 C 292.934 352.887,294.698 354.651,296.168 355.301 C 296.800 355.581,297.317 355.941,297.317 356.101 C 297.317 356.262,297.464 356.302,297.644 356.191 C 297.824 356.079,298.025 356.145,298.091 356.336 C 298.512 357.554,308.285 357.554,308.707 356.336 C 308.773 356.145,308.974 356.079,309.154 356.191 C 309.334 356.302,309.481 356.241,309.481 356.056 C 309.481 355.870,309.763 355.617,310.107 355.492 C 311.325 355.052,314.258 352.773,313.606 352.773 C 313.438 352.773,314.883 350.463,315.548 349.668 C 315.742 349.437,316.185 348.591,316.532 347.790 C 316.879 346.988,317.296 346.333,317.458 346.333 C 317.620 346.333,317.653 346.172,317.531 345.975 C 317.410 345.778,317.461 345.617,317.646 345.617 C 317.830 345.617,318.181 345.134,318.426 344.544 C 318.670 343.953,319.021 343.470,319.206 343.470 C 319.390 343.470,319.449 343.321,319.335 343.137 C 319.222 342.954,319.296 342.702,319.499 342.576 C 319.702 342.450,319.776 342.198,319.663 342.015 C 319.550 341.831,319.608 341.682,319.792 341.682 C 319.977 341.682,320.328 341.199,320.572 340.608 C 320.817 340.018,321.185 339.535,321.391 339.535 C 321.597 339.535,321.662 339.432,321.537 339.307 C 321.412 339.182,321.626 338.633,322.014 338.089 C 322.402 337.544,322.719 336.922,322.719 336.707 C 322.719 336.491,322.890 336.315,323.098 336.315 C 323.306 336.315,323.377 336.154,323.256 335.957 C 323.134 335.760,323.189 335.599,323.378 335.599 C 323.567 335.599,324.019 334.875,324.383 333.991 C 324.747 333.106,325.175 332.381,325.334 332.381 C 325.493 332.380,325.524 332.218,325.403 332.021 C 325.281 331.825,325.360 331.664,325.579 331.664 C 325.798 331.664,326.145 331.181,326.351 330.590 C 326.556 330.000,326.865 329.517,327.036 329.517 C 327.208 329.517,327.255 329.275,327.142 328.980 C 327.029 328.685,327.103 328.444,327.306 328.444 C 327.510 328.444,327.960 327.800,328.308 327.013 C 328.655 326.225,329.033 325.581,329.148 325.581 C 329.263 325.581,329.674 324.858,330.063 323.975 C 330.451 323.091,330.899 322.367,331.059 322.365 C 331.218 322.363,331.249 322.200,331.127 322.004 C 331.005 321.807,331.060 321.646,331.249 321.646 C 331.438 321.646,331.891 320.922,332.254 320.037 C 332.618 319.152,333.009 318.428,333.123 318.427 C 333.237 318.426,333.718 317.581,334.193 316.547 C 334.667 315.514,335.205 314.562,335.387 314.432 C 335.710 314.202,336.382 312.994,338.243 309.302 C 339.977 305.862,339.595 306.020,346.862 305.745 C 350.842 305.595,353.386 305.354,353.534 305.114 C 353.674 304.887,354.233 304.818,354.883 304.948 C 355.494 305.070,355.993 305.032,355.993 304.862 C 355.993 304.693,356.878 304.444,357.961 304.309 C 359.043 304.174,359.928 303.903,359.928 303.708 C 359.928 303.513,360.210 303.400,360.555 303.457 C 360.899 303.514,361.342 303.463,361.538 303.344 C 361.735 303.226,362.862 302.852,364.043 302.513 C 365.224 302.174,366.277 301.756,366.384 301.583 C 366.491 301.411,366.974 301.226,367.458 301.172 C 367.941 301.118,368.549 300.872,368.809 300.626 C 369.069 300.380,369.512 300.179,369.793 300.179 C 370.074 300.179,370.304 300.008,370.304 299.800 C 370.304 299.592,370.465 299.521,370.662 299.642 C 370.859 299.764,371.020 299.729,371.020 299.565 C 371.020 299.400,371.743 298.948,372.626 298.560 C 373.510 298.171,374.234 297.736,374.236 297.592 C 374.238 297.449,374.869 297.010,375.638 296.618 C 376.407 296.226,377.091 295.780,377.158 295.627 C 377.283 295.344,379.460 293.739,379.719 293.739 C 379.852 293.739,386.321 287.210,388.104 285.277 C 388.547 284.797,388.909 284.170,388.909 283.884 C 388.909 283.597,389.074 283.363,389.275 283.363 C 389.477 283.363,389.795 282.961,389.982 282.469 C 390.169 281.977,390.487 281.574,390.689 281.574 C 390.890 281.574,391.021 281.453,390.979 281.306 C 390.936 281.158,391.339 280.357,391.873 279.524 C 392.407 278.692,392.844 277.846,392.844 277.646 C 392.844 277.445,392.973 277.281,393.130 277.281 C 393.288 277.281,393.620 276.717,393.869 276.029 C 394.118 275.340,394.467 274.776,394.645 274.776 C 394.823 274.776,394.876 274.535,394.763 274.240 C 394.649 273.945,394.735 273.703,394.953 273.703 C 395.171 273.703,395.331 273.582,395.310 273.435 C 395.230 272.877,395.804 271.556,396.127 271.556 C 396.313 271.556,396.373 271.409,396.262 271.229 C 396.150 271.048,396.248 270.445,396.479 269.887 C 396.710 269.329,396.930 268.792,396.968 268.694 C 397.007 268.596,397.160 267.995,397.310 267.358 C 397.460 266.722,397.701 266.274,397.845 266.363 C 397.990 266.453,398.032 266.128,397.939 265.642 C 397.846 265.156,397.927 264.758,398.120 264.758 C 398.312 264.758,398.393 264.356,398.299 263.864 C 398.192 263.304,398.291 262.970,398.566 262.970 C 398.859 262.970,398.927 262.662,398.771 262.041 C 398.638 261.511,398.718 260.896,398.956 260.609 C 399.192 260.325,399.281 259.645,399.162 259.047 C 399.045 258.465,399.103 257.894,399.291 257.778 C 399.903 257.400,399.497 46.304,398.883 45.564 C 398.666 45.303,398.591 44.685,398.715 44.191 C 398.857 43.623,398.789 43.292,398.531 43.292 C 398.267 43.292,398.198 42.910,398.336 42.218 C 398.470 41.550,398.404 41.145,398.160 41.145 C 397.938 41.145,397.843 40.764,397.939 40.261 C 398.032 39.775,397.970 39.463,397.802 39.567 C 397.633 39.671,397.496 39.434,397.496 39.040 C 397.496 38.647,397.342 38.230,397.153 38.113 C 396.965 37.997,396.902 37.666,397.013 37.377 C 397.124 37.088,397.017 36.852,396.777 36.852 C 396.515 36.852,396.414 36.564,396.526 36.136 C 396.629 35.742,396.580 35.420,396.417 35.420 C 396.254 35.420,396.015 34.937,395.886 34.347 C 395.756 33.757,395.502 33.274,395.320 33.274 C 395.139 33.274,395.016 33.153,395.046 33.005 C 395.115 32.671,394.089 30.178,393.390 28.980 C 393.102 28.488,392.587 27.522,392.244 26.834 C 391.901 26.145,391.388 25.300,391.104 24.955 C 390.819 24.611,390.683 24.329,390.801 24.329 C 390.919 24.329,390.536 23.806,389.951 23.166 C 389.365 22.527,388.448 21.360,387.914 20.572 C 386.817 18.958,378.503 10.733,377.968 10.733 C 377.869 10.733,376.934 10.089,375.891 9.302 C 374.849 8.515,373.840 7.871,373.649 7.871 C 373.458 7.871,372.985 7.576,372.597 7.215 C 372.210 6.855,371.133 6.269,370.204 5.915 C 369.275 5.560,368.515 5.121,368.515 4.939 C 368.515 4.758,368.365 4.702,368.182 4.815 C 367.999 4.928,367.762 4.879,367.655 4.706 C 367.548 4.533,366.732 4.188,365.841 3.938 C 364.950 3.689,364.222 3.335,364.222 3.152 C 364.222 2.970,364.078 2.909,363.901 3.018 C 363.725 3.127,363.121 2.977,362.560 2.684 C 361.998 2.391,361.176 2.150,360.733 2.149 C 360.291 2.148,359.928 2.008,359.928 1.839 C 359.928 1.669,359.526 1.607,359.034 1.701 C 358.487 1.806,358.140 1.708,358.140 1.449 C 358.140 1.185,357.864 1.113,357.407 1.258 C 357.004 1.386,356.442 1.298,356.159 1.063 C 355.865 0.819,355.252 0.734,354.729 0.865 C 354.225 0.992,353.619 0.970,353.382 0.816 C 352.259 0.088,60.983 -0.198,57.066 0.525 M183.650 56.744 C 192.067 58.615,197.745 66.267,197.032 74.777 C 196.843 77.030,195.276 86.342,193.569 95.358 C 193.196 97.330,192.779 99.786,192.642 100.814 L 192.394 102.683 208.874 102.683 C 224.266 102.683,225.365 102.642,225.524 102.057 C 225.915 100.617,226.227 99.014,227.074 94.097 C 231.500 68.420,231.447 68.686,232.592 66.210 C 240.689 48.706,268.030 56.898,264.765 75.850 C 264.545 77.129,264.063 79.946,263.694 82.111 C 262.779 87.489,260.545 100.100,260.260 101.495 L 260.028 102.632 274.290 102.766 C 287.693 102.891,288.671 102.944,290.550 103.646 C 303.274 108.403,306.465 123.448,296.656 132.435 C 291.997 136.703,290.125 137.024,269.857 137.028 C 261.149 137.029,254.025 137.071,254.025 137.120 C 254.024 137.169,253.794 138.497,253.512 140.072 C 253.231 141.646,252.007 148.488,250.793 155.277 C 249.578 162.066,248.561 168.184,248.532 168.873 L 248.479 170.125 262.970 170.304 C 276.759 170.474,277.550 170.520,279.336 171.253 C 293.531 177.077,294.401 196.136,280.764 202.518 C 277.269 204.153,275.543 204.289,258.236 204.291 L 242.232 204.293 242.053 205.098 C 241.955 205.541,241.384 208.721,240.784 212.165 C 235.745 241.105,235.990 240.220,231.848 244.381 C 222.156 254.119,205.642 248.951,203.215 235.420 C 202.747 232.809,202.937 230.114,203.947 225.045 C 204.320 223.175,204.877 220.036,205.185 218.068 C 205.494 216.100,206.048 212.961,206.416 211.091 C 206.785 209.222,207.193 206.926,207.323 205.989 L 207.558 204.286 191.003 204.379 L 174.448 204.472 174.174 205.725 C 174.023 206.413,173.492 209.311,172.995 212.165 C 168.481 238.074,168.627 237.363,167.260 240.077 C 160.282 253.935,139.746 251.773,135.749 236.760 C 134.994 233.922,135.132 231.009,136.343 224.232 C 136.948 220.842,137.826 215.805,138.293 213.038 C 138.760 210.272,139.307 207.293,139.509 206.419 C 139.710 205.545,139.879 204.709,139.884 204.562 C 139.889 204.414,133.976 204.292,126.744 204.291 C 109.730 204.289,107.610 203.892,103.168 199.877 C 93.238 190.900,96.824 174.867,109.633 170.971 C 111.616 170.368,113.302 170.309,128.850 170.307 L 145.894 170.304 146.134 168.605 C 146.266 167.670,146.759 164.812,147.228 162.254 C 147.697 159.696,148.503 155.188,149.019 152.236 C 149.535 149.284,150.349 144.762,150.828 142.185 C 151.307 139.609,151.699 137.395,151.699 137.266 C 151.699 137.136,146.024 137.027,139.088 137.023 C 124.853 137.015,122.663 136.806,118.982 135.106 C 106.261 129.228,106.193 110.781,118.870 104.684 C 122.656 102.863,124.578 102.698,142.113 102.690 L 157.749 102.683 157.976 101.342 C 158.101 100.604,158.578 97.907,159.036 95.349 C 159.494 92.791,160.280 88.363,160.783 85.510 C 163.911 67.742,164.099 66.951,165.829 64.220 C 169.645 58.195,176.757 55.212,183.650 56.744 M186.245 137.478 C 186.069 138.052,185.829 139.347,184.800 145.259 C 183.197 154.473,181.758 162.626,181.233 165.474 C 180.942 167.048,180.699 168.779,180.692 169.320 L 180.680 170.304 197.082 170.304 L 213.484 170.304 214.085 167.352 C 214.701 164.333,215.563 159.489,216.841 151.878 C 217.237 149.517,217.957 145.441,218.441 142.821 C 218.924 140.200,219.320 137.825,219.320 137.543 C 219.320 136.830,186.463 136.765,186.245 137.478 M7.238 279.495 C 7.316 279.728,7.571 279.983,7.804 280.061 C 8.066 280.148,8.146 279.985,8.012 279.636 C 7.762 278.986,7.023 278.851,7.238 279.495 M12.771 286.921 C 12.877 287.325,13.106 287.657,13.280 287.657 C 13.762 287.657,13.656 287.079,13.087 286.607 C 12.670 286.260,12.613 286.317,12.771 286.921 " stroke="none" fill="#facb24" fill-rule="evenodd"></path><path id="path2" d="M48.161 0.406 C 45.821 0.574,43.720 0.866,43.491 1.056 C 43.263 1.246,42.722 1.309,42.289 1.196 C 41.795 1.066,41.503 1.153,41.503 1.428 C 41.503 1.717,41.198 1.790,40.608 1.642 C 40.116 1.519,39.714 1.548,39.714 1.708 C 39.714 1.868,38.748 2.213,37.567 2.475 C 36.386 2.737,35.420 3.087,35.420 3.253 C 35.420 3.420,35.179 3.463,34.884 3.349 C 34.588 3.236,34.347 3.339,34.347 3.578 C 34.347 3.817,34.106 3.920,33.810 3.806 C 33.515 3.693,33.274 3.738,33.274 3.907 C 33.274 4.076,32.549 4.428,31.664 4.690 C 30.778 4.951,30.054 5.301,30.054 5.466 C 30.054 5.631,29.893 5.667,29.696 5.546 C 29.499 5.424,29.338 5.475,29.338 5.660 C 29.338 5.845,28.855 6.196,28.265 6.440 C 27.674 6.685,27.191 7.043,27.191 7.237 C 27.191 7.431,26.950 7.497,26.655 7.384 C 26.360 7.271,26.118 7.342,26.118 7.543 C 26.118 7.744,25.555 8.143,24.866 8.431 C 24.177 8.719,23.614 9.117,23.614 9.316 C 23.614 9.515,23.211 9.831,22.719 10.018 C 22.227 10.205,21.825 10.523,21.825 10.725 C 21.825 10.926,21.541 11.091,21.195 11.091 C 20.849 11.091,20.365 11.413,20.119 11.807 C 19.873 12.200,19.494 12.522,19.276 12.522 C 18.748 12.522,13.251 17.954,13.244 18.483 C 13.241 18.712,12.764 19.298,12.184 19.785 C 11.605 20.273,11.233 20.774,11.358 20.899 C 11.483 21.023,11.232 21.373,10.801 21.674 C 10.370 21.976,10.018 22.442,10.018 22.710 C 10.018 22.977,9.837 23.256,9.616 23.330 C 9.156 23.483,7.860 25.549,6.743 27.907 C 6.324 28.792,5.802 29.635,5.584 29.780 C 5.366 29.924,5.328 30.045,5.500 30.048 C 5.672 30.051,5.633 30.270,5.414 30.534 C 5.194 30.798,5.121 31.120,5.251 31.249 C 5.380 31.379,5.311 31.485,5.097 31.485 C 4.883 31.485,4.602 31.968,4.472 32.558 C 4.343 33.148,4.093 33.631,3.918 33.631 C 3.743 33.631,3.693 33.873,3.806 34.168 C 3.920 34.464,3.817 34.705,3.578 34.705 C 3.339 34.705,3.236 34.946,3.349 35.242 C 3.463 35.537,3.421 35.778,3.258 35.778 C 3.094 35.778,2.755 36.744,2.504 37.925 C 2.254 39.106,1.907 40.072,1.733 40.072 C 1.560 40.072,1.519 40.474,1.642 40.966 C 1.789 41.553,1.717 41.860,1.431 41.860 C 1.149 41.860,1.072 42.166,1.213 42.725 C 1.332 43.201,1.278 43.644,1.092 43.709 C -0.765 44.364,-0.374 263.685,1.484 263.685 C 1.659 263.685,1.702 264.088,1.578 264.580 C 1.455 265.072,1.499 265.474,1.676 265.474 C 1.854 265.474,2.214 266.443,2.477 267.628 C 2.740 268.813,3.098 269.871,3.272 269.979 C 3.447 270.086,3.497 270.325,3.384 270.508 C 3.270 270.691,3.366 270.841,3.595 270.841 C 3.824 270.841,3.919 271.082,3.806 271.377 C 3.693 271.673,3.735 271.914,3.900 271.914 C 4.065 271.914,4.403 272.639,4.651 273.524 C 4.899 274.410,5.259 275.134,5.452 275.134 C 5.644 275.134,5.705 275.384,5.588 275.689 C 5.471 275.995,5.510 276.161,5.675 276.059 C 5.840 275.957,6.192 276.529,6.457 277.331 C 6.721 278.132,7.136 278.864,7.379 278.958 C 7.622 279.051,7.985 279.597,8.185 280.172 C 8.386 280.746,8.736 281.216,8.964 281.216 C 9.192 281.216,9.287 281.456,9.175 281.748 C 9.055 282.060,9.261 282.434,9.673 282.655 C 10.060 282.861,10.376 283.271,10.376 283.566 C 10.376 283.860,10.617 284.194,10.912 284.307 C 11.208 284.420,11.449 284.726,11.449 284.987 C 11.449 285.248,11.940 285.811,12.540 286.238 C 13.140 286.665,13.575 287.182,13.507 287.386 C 13.348 287.863,18.849 293.381,19.483 293.381 C 19.745 293.381,20.053 293.625,20.167 293.923 C 20.282 294.221,20.782 294.620,21.279 294.809 C 21.776 294.998,22.182 295.317,22.182 295.519 C 22.182 295.721,22.415 295.886,22.699 295.886 C 22.983 295.886,23.466 296.243,23.772 296.681 C 24.079 297.118,24.329 297.349,24.329 297.193 C 24.329 297.037,24.797 297.243,25.368 297.650 C 25.940 298.057,26.584 298.390,26.799 298.390 C 27.015 298.390,27.191 298.560,27.191 298.769 C 27.191 298.977,27.336 299.059,27.512 298.950 C 27.688 298.841,27.912 298.961,28.010 299.217 C 28.108 299.472,28.850 299.900,29.658 300.166 C 30.466 300.433,31.127 300.761,31.127 300.895 C 31.127 301.029,32.093 301.431,33.274 301.789 C 34.454 302.146,35.420 302.569,35.420 302.729 C 35.420 302.888,35.646 302.932,35.921 302.827 C 36.196 302.721,36.523 302.800,36.648 303.001 C 36.772 303.203,37.111 303.277,37.400 303.166 C 37.689 303.055,37.925 303.124,37.925 303.318 C 37.925 303.512,39.205 303.879,40.770 304.134 C 42.342 304.389,43.523 304.746,43.408 304.931 C 43.283 305.133,43.786 305.167,44.677 305.017 C 45.691 304.845,46.154 304.895,46.154 305.175 C 46.154 305.441,46.935 305.573,48.390 305.552 C 49.620 305.534,52.357 305.627,54.472 305.759 C 59.137 306.048,59.310 305.838,55.188 304.888 C 38.530 301.050,25.329 284.899,21.369 263.512 L 20.572 259.213 20.572 152.594 C 20.572 51.699,20.607 45.792,21.212 42.576 C 25.472 19.939,39.220 3.816,57.066 0.526 L 59.571 0.065 55.993 0.083 C 54.025 0.093,50.501 0.239,48.161 0.406 " stroke="none" fill="#fbdb54" fill-rule="evenodd"></path><path id="path3" d="M385.515 17.274 C 385.861 17.821,386.233 18.179,386.343 18.069 C 386.453 17.959,386.171 17.511,385.715 17.074 L 384.887 16.279 385.515 17.274 M196.877 73.345 C 196.877 74.231,196.947 74.593,197.032 74.150 C 197.118 73.708,197.118 72.983,197.032 72.540 C 196.947 72.097,196.877 72.460,196.877 73.345 M264.484 75.134 C 264.484 75.823,264.557 76.105,264.647 75.760 C 264.737 75.416,264.737 74.852,264.647 74.508 C 264.557 74.164,264.484 74.445,264.484 75.134 M124.240 103.288 C 124.584 103.378,125.148 103.378,125.492 103.288 C 125.836 103.198,125.555 103.124,124.866 103.124 C 124.177 103.124,123.895 103.198,124.240 103.288 M286.315 103.288 C 286.659 103.378,287.223 103.378,287.567 103.288 C 287.911 103.198,287.630 103.124,286.941 103.124 C 286.252 103.124,285.970 103.198,286.315 103.288 M300.204 112.165 C 300.204 112.361,300.434 112.925,300.716 113.417 C 300.997 113.909,301.227 114.150,301.227 113.953 C 301.227 113.757,300.997 113.193,300.716 112.701 C 300.434 112.209,300.204 111.968,300.204 112.165 M109.564 118.426 C 109.564 119.114,109.638 119.396,109.728 119.052 C 109.818 118.708,109.818 118.144,109.728 117.800 C 109.638 117.455,109.564 117.737,109.564 118.426 M302.079 120.036 C 302.081 121.216,302.147 121.656,302.227 121.013 C 302.307 120.370,302.305 119.404,302.223 118.867 C 302.142 118.329,302.077 118.855,302.079 120.036 M109.564 120.930 C 109.564 121.619,109.638 121.901,109.728 121.556 C 109.818 121.212,109.818 120.648,109.728 120.304 C 109.638 119.960,109.564 120.242,109.564 120.930 M124.240 136.561 C 124.584 136.651,125.148 136.651,125.492 136.561 C 125.836 136.471,125.555 136.398,124.866 136.398 C 124.177 136.398,123.895 136.471,124.240 136.561 M286.315 136.561 C 286.659 136.651,287.223 136.651,287.567 136.561 C 287.911 136.471,287.630 136.398,286.941 136.398 C 286.252 136.398,285.970 136.471,286.315 136.561 M196.959 170.304 L 180.143 170.494 196.848 170.578 C 207.691 170.632,213.631 170.536,213.775 170.304 C 213.896 170.107,213.946 169.984,213.885 170.030 C 213.824 170.077,206.208 170.200,196.959 170.304 M248.251 170.398 C 248.401 170.548,254.632 170.628,262.097 170.577 L 275.671 170.483 261.824 170.304 C 254.209 170.206,248.101 170.248,248.251 170.398 M121.044 170.572 C 125.731 170.629,133.298 170.629,137.860 170.572 C 142.422 170.515,138.587 170.469,129.338 170.469 C 120.089 170.469,116.357 170.516,121.044 170.572 M290.258 187.478 C 290.258 188.363,290.328 188.725,290.414 188.283 C 290.499 187.840,290.499 187.115,290.414 186.673 C 290.328 186.230,290.258 186.592,290.258 187.478 M285.314 199.016 L 283.900 200.537 285.420 199.122 C 286.835 197.807,287.105 197.496,286.835 197.496 C 286.776 197.496,286.092 198.180,285.314 199.016 M135.349 232.558 C 135.349 233.640,135.416 234.083,135.498 233.542 C 135.580 233.001,135.580 232.115,135.498 231.574 C 135.416 231.033,135.349 231.476,135.349 232.558 M139.177 243.404 C 139.177 243.465,139.700 243.988,140.340 244.566 L 141.503 245.617 140.452 244.454 C 139.472 243.370,139.177 243.127,139.177 243.404 M399.740 252.952 C 399.740 253.837,399.809 254.199,399.895 253.757 C 399.980 253.314,399.980 252.589,399.895 252.147 C 399.809 251.704,399.740 252.066,399.740 252.952 M350.358 305.792 C 350.702 305.882,351.266 305.882,351.610 305.792 C 351.954 305.702,351.673 305.629,350.984 305.629 C 350.295 305.629,350.013 305.702,350.358 305.792 " stroke="none" fill="#a49453" fill-rule="evenodd"></path><path id="path4" d="M347.764 0.358 C 348.256 0.515,349.383 0.640,350.268 0.635 L 351.878 0.626 350.268 0.340 C 349.383 0.182,348.256 0.057,347.764 0.062 L 346.869 0.071 347.764 0.358 M364.222 3.193 C 364.222 3.339,364.785 3.631,365.474 3.842 C 366.163 4.053,366.726 4.107,366.726 3.962 C 366.726 3.817,366.163 3.525,365.474 3.314 C 364.785 3.102,364.222 3.048,364.222 3.193 M368.515 4.993 C 368.515 5.160,368.998 5.465,369.589 5.671 C 370.179 5.877,370.662 5.908,370.662 5.741 C 370.662 5.574,370.179 5.268,369.589 5.063 C 368.998 4.857,368.515 4.825,368.515 4.993 M372.651 7.323 C 373.033 7.612,373.587 7.848,373.882 7.848 C 374.287 7.848,374.249 7.720,373.724 7.323 C 373.342 7.034,372.788 6.798,372.493 6.798 C 372.088 6.798,372.126 6.926,372.651 7.323 M376.135 9.481 C 377.978 10.888,378.762 11.155,377.449 9.928 C 376.639 9.172,375.105 8.229,374.684 8.229 C 374.580 8.229,375.233 8.792,376.135 9.481 M378.533 11.039 C 378.533 11.256,378.976 11.708,379.517 12.044 C 380.058 12.380,380.779 12.988,381.119 13.394 C 381.459 13.800,381.741 13.958,381.745 13.744 C 381.752 13.394,380.862 12.500,379.150 11.137 C 378.761 10.827,378.533 10.791,378.533 11.039 M382.111 13.910 C 382.111 14.121,382.935 15.143,383.941 16.181 C 385.781 18.077,385.887 18.105,385.011 16.458 C 384.451 15.406,382.111 13.350,382.111 13.910 M386.961 19.141 C 388.355 21.381,390.522 23.963,390.660 23.548 C 390.739 23.310,390.458 22.886,390.035 22.606 C 389.612 22.325,389.267 21.875,389.267 21.605 C 389.267 21.336,388.945 20.914,388.551 20.668 C 388.157 20.423,387.835 20.044,387.835 19.826 C 387.835 19.609,387.488 19.124,387.064 18.750 L 386.294 18.068 386.961 19.141 M391.772 25.952 C 391.774 26.370,393.120 28.623,393.368 28.623 C 393.635 28.623,392.778 26.728,392.242 26.131 C 391.983 25.843,391.772 25.762,391.772 25.952 M394.329 31.128 C 394.643 32.028,395.349 32.946,395.349 32.454 C 395.349 31.908,394.507 30.054,394.259 30.054 C 394.092 30.054,394.123 30.537,394.329 31.128 M395.961 34.705 C 396.064 35.098,396.275 35.420,396.430 35.420 C 396.586 35.420,396.629 35.098,396.526 34.705 C 396.423 34.311,396.212 33.989,396.056 33.989 C 395.901 33.989,395.858 34.311,395.961 34.705 M398.594 44.612 C 398.580 45.043,398.730 45.496,398.927 45.617 C 399.350 45.879,399.350 45.529,398.927 44.544 C 398.630 43.854,398.618 43.856,398.594 44.612 M398.938 47.943 C 398.938 48.238,399.094 48.721,399.284 49.016 C 399.593 49.493,399.631 49.493,399.631 49.016 C 399.631 48.721,399.475 48.238,399.284 47.943 C 398.976 47.466,398.938 47.466,398.938 47.943 M399.819 153.131 C 399.819 207.343,399.860 229.521,399.911 202.415 C 399.961 175.309,399.961 130.953,399.911 103.846 C 399.860 76.740,399.819 98.918,399.819 153.131 M179.343 56.428 C 179.887 56.511,180.692 56.509,181.132 56.424 C 181.572 56.339,181.127 56.271,180.143 56.274 C 179.159 56.277,178.799 56.346,179.343 56.428 M247.138 56.424 C 247.581 56.510,248.305 56.510,248.748 56.424 C 249.191 56.339,248.828 56.269,247.943 56.269 C 247.057 56.269,246.695 56.339,247.138 56.424 M235.759 61.449 L 234.526 62.791 235.868 61.558 C 237.116 60.410,237.374 60.107,237.101 60.107 C 237.041 60.107,236.437 60.711,235.759 61.449 M259.750 61.360 C 260.417 62.048,261.044 62.612,261.142 62.612 C 261.241 62.612,260.775 62.048,260.107 61.360 C 259.440 60.671,258.813 60.107,258.715 60.107 C 258.616 60.107,259.082 60.671,259.750 61.360 M264.856 73.345 C 264.856 74.231,264.926 74.593,265.011 74.150 C 265.096 73.708,265.096 72.983,265.011 72.540 C 264.926 72.097,264.856 72.460,264.856 73.345 M192.275 102.406 C 192.348 102.768,195.796 102.862,208.945 102.862 C 222.093 102.862,225.541 102.768,225.614 102.406 C 225.665 102.155,225.625 102.115,225.525 102.317 C 225.404 102.559,219.787 102.683,208.945 102.683 C 198.102 102.683,192.485 102.559,192.364 102.317 C 192.264 102.115,192.224 102.155,192.275 102.406 M133.542 102.951 C 138.019 103.008,145.344 103.008,149.821 102.951 C 154.298 102.895,150.635 102.848,141.682 102.848 C 132.728 102.848,129.065 102.895,133.542 102.951 M266.637 102.951 C 270.326 103.009,276.364 103.009,280.054 102.951 C 283.743 102.893,280.725 102.845,273.345 102.845 C 265.966 102.845,262.947 102.893,266.637 102.951 M109.206 119.499 C 109.206 120.188,109.280 120.470,109.370 120.125 C 109.460 119.781,109.460 119.217,109.370 118.873 C 109.280 118.529,109.206 118.810,109.206 119.499 M132.134 136.941 C 135.837 136.999,141.794 136.999,145.372 136.940 C 148.951 136.882,145.921 136.834,138.640 136.835 C 131.360 136.835,128.432 136.882,132.134 136.941 M186.283 136.937 C 186.190 137.087,193.534 137.166,202.602 137.113 C 215.611 137.037,219.158 137.112,219.411 137.471 C 219.653 137.813,219.696 137.793,219.586 137.388 C 219.426 136.802,186.641 136.359,186.283 136.937 M262.189 136.941 C 266.778 136.997,274.184 136.997,278.647 136.941 C 283.110 136.884,279.356 136.837,270.304 136.838 C 261.252 136.838,257.600 136.884,262.189 136.941 M285.137 175.045 C 286.014 175.979,286.779 176.744,286.837 176.744 C 287.105 176.744,286.821 176.423,285.242 174.940 L 283.542 173.345 285.137 175.045 M97.428 186.941 C 97.430 188.122,97.496 188.562,97.576 187.918 C 97.656 187.275,97.654 186.309,97.572 185.772 C 97.491 185.234,97.425 185.760,97.428 186.941 M119.433 204.204 C 123.234 204.262,129.352 204.261,133.029 204.203 C 136.706 204.145,133.596 204.098,126.118 204.098 C 118.640 204.098,115.632 204.146,119.433 204.204 M174.474 204.204 C 174.383 204.352,181.844 204.472,191.055 204.472 C 200.267 204.472,207.728 204.352,207.637 204.204 C 207.546 204.056,200.084 203.936,191.055 203.936 C 182.027 203.936,174.565 204.056,174.474 204.204 M242.099 204.174 C 241.968 204.305,241.863 204.587,241.866 204.800 C 241.869 205.033,241.984 205.010,242.153 204.744 C 242.369 204.404,246.272 204.278,258.874 204.204 L 275.313 204.107 258.825 204.021 C 249.757 203.974,242.230 204.043,242.099 204.174 M202.969 232.558 C 202.969 233.640,203.037 234.083,203.119 233.542 C 203.200 233.001,203.200 232.115,203.119 231.574 C 203.037 231.033,202.969 231.476,202.969 232.558 M206.798 243.404 C 206.798 243.465,207.321 243.988,207.961 244.566 L 209.123 245.617 208.073 244.454 C 207.093 243.370,206.798 243.127,206.798 243.404 M163.663 244.812 L 162.612 245.975 163.775 244.924 C 164.858 243.945,165.102 243.649,164.825 243.649 C 164.764 243.649,164.241 244.173,163.663 244.812 M399.375 253.488 C 399.379 254.275,399.452 254.555,399.537 254.110 C 399.623 253.665,399.620 253.021,399.530 252.679 C 399.441 252.337,399.371 252.701,399.375 253.488 M396.403 269.996 C 396.206 270.515,396.126 271.021,396.225 271.121 C 396.387 271.282,396.563 270.905,396.982 269.499 C 397.236 268.648,396.761 269.056,396.403 269.996 M393.983 275.669 C 393.759 276.162,393.722 276.565,393.901 276.565 C 394.253 276.565,394.798 275.179,394.545 274.927 C 394.461 274.842,394.208 275.177,393.983 275.669 M392.844 277.646 C 392.844 277.846,392.465 278.611,392.002 279.345 C 391.539 280.079,391.125 280.841,391.082 281.038 C 391.039 281.234,390.775 281.524,390.493 281.681 C 390.212 281.839,389.982 282.233,389.982 282.558 C 389.982 283.284,390.374 282.905,391.371 281.216 C 393.030 278.407,393.556 277.281,393.209 277.281 C 393.009 277.281,392.844 277.445,392.844 277.646 M383.363 290.205 C 381.329 292.258,380.630 293.129,381.465 292.571 C 383.325 291.327,387.435 286.880,386.662 286.948 C 386.619 286.952,385.134 288.417,383.363 290.205 M378.533 294.474 C 376.710 295.922,375.975 296.601,376.228 296.601 C 376.491 296.601,379.964 294.038,379.964 293.844 C 379.964 293.559,379.337 293.835,378.533 294.474 M374.750 297.130 C 374.145 297.588,374.135 297.653,374.666 297.663 C 374.999 297.669,375.377 297.503,375.507 297.293 C 375.896 296.662,375.486 296.574,374.750 297.130 M372.819 298.376 C 372.529 298.559,372.401 298.817,372.534 298.950 C 372.666 299.082,373.035 298.930,373.354 298.611 C 373.983 297.982,373.664 297.841,372.819 298.376 M366.995 301.141 C 366.650 301.231,366.369 301.439,366.369 301.603 C 366.369 301.971,367.738 301.642,368.005 301.209 C 368.208 300.880,368.036 300.869,366.995 301.141 M363.148 302.744 C 362.460 302.938,361.735 303.264,361.538 303.467 C 361.295 303.719,361.408 303.773,361.896 303.635 C 362.290 303.524,363.055 303.327,363.596 303.198 C 364.137 303.069,364.580 302.820,364.580 302.645 C 364.580 302.469,364.539 302.340,364.490 302.358 C 364.441 302.376,363.837 302.549,363.148 302.744 M353.488 305.138 C 353.488 305.308,353.891 305.369,354.383 305.275 C 354.875 305.181,355.277 305.043,355.277 304.967 C 355.277 304.892,354.875 304.830,354.383 304.830 C 353.891 304.830,353.488 304.969,353.488 305.138 M49.289 305.799 C 49.734 305.884,50.378 305.881,50.720 305.791 C 51.062 305.702,50.698 305.632,49.911 305.636 C 49.123 305.640,48.844 305.713,49.289 305.799 M338.958 307.882 C 338.632 308.380,338.455 308.878,338.566 308.989 C 338.676 309.099,339.024 308.692,339.339 308.083 C 340.029 306.749,339.785 306.621,338.958 307.882 M286.907 342.692 C 287.125 343.098,287.479 343.540,287.694 343.673 C 287.975 343.846,287.974 343.705,287.690 343.176 C 287.473 342.769,287.119 342.328,286.903 342.195 C 286.623 342.022,286.624 342.162,286.907 342.692 " stroke="none" fill="#b9a043" fill-rule="evenodd"></path></g></svg>