<?xml version="1.0" standalone="no"?>
<!DOCTYPE svg PUBLIC "-//W3C//DTD SVG 20010904//EN"
 "http://www.w3.org/TR/2001/REC-SVG-20010904/DTD/svg10.dtd">
<svg version="1.0" xmlns="http://www.w3.org/2000/svg"
 width="828.000000pt" height="1476.000000pt" viewBox="0 0 828.000000 1476.000000"
 preserveAspectRatio="xMidYMid meet">

<g transform="translate(0.000000,1476.000000) scale(0.100000,-0.100000)"
fill="#000000" stroke="none">
<path d="M4202 9103 c-21 -8 -39 -54 -52 -133 -18 -117 -8 -108 -116 -112 -91
-3 -97 -5 -120 -31 -32 -37 -32 -87 0 -124 22 -25 30 -28 102 -30 43 -1 80 -6
82 -11 1 -4 -4 -44 -11 -88 l-13 -79 -98 -5 c-93 -5 -99 -7 -123 -34 -21 -25
-24 -37 -20 -70 9 -62 33 -76 129 -76 l81 0 -7 -41 c-4 -22 -9 -67 -13 -99 -5
-54 -4 -60 21 -85 21 -20 34 -26 63 -23 51 4 71 36 88 141 8 48 17 92 20 97 3
6 43 10 87 10 l81 0 -7 -37 c-3 -21 -9 -66 -13 -100 -5 -57 -4 -63 21 -88 21
-20 34 -26 63 -23 50 4 69 35 87 141 8 48 18 92 21 97 3 6 48 10 100 10 89 0
95 1 114 26 31 39 28 89 -8 125 -27 27 -35 29 -106 29 -75 0 -77 1 -72 23 3
12 9 47 13 77 4 30 10 61 13 68 5 9 36 13 100 15 88 2 94 3 117 30 32 37 32
87 0 124 -22 25 -31 28 -106 31 -78 4 -81 5 -76 26 3 11 9 55 12 98 6 73 6 77
-19 102 -34 34 -80 35 -111 1 -16 -17 -26 -46 -35 -107 -19 -128 -10 -118
-108 -118 -84 0 -85 0 -79 23 3 12 9 56 13 99 6 73 5 77 -20 102 -25 25 -62
32 -95 19z m234 -436 c2 -2 -2 -42 -9 -88 l-13 -84 -88 -3 c-88 -3 -88 -3 -83
20 3 13 9 48 13 78 10 85 11 85 99 83 42 0 78 -3 81 -6z"/>
<path d="M3503 7030 c-78 -18 -119 -78 -110 -158 6 -57 43 -96 125 -134 34
-15 71 -37 82 -48 27 -27 25 -65 -2 -84 -32 -23 -70 -20 -112 9 -60 41 -106
29 -106 -26 0 -58 99 -106 196 -96 107 11 154 61 154 161 0 86 -22 116 -126
168 -47 23 -90 51 -95 60 -22 41 31 78 89 63 15 -4 46 -9 69 -12 39 -5 43 -3
49 23 4 15 2 34 -3 43 -21 33 -133 50 -210 31z"/>
<path d="M3774 7015 c-3 -14 -3 -36 0 -50 6 -23 11 -25 66 -25 l60 0 2 -217 3
-218 26 -9 c14 -5 38 -6 53 -2 l26 6 0 220 0 220 58 0 c64 0 82 11 82 50 0 47
-12 50 -197 50 l-173 0 -6 -25z"/>
<path d="M4287 7026 c-86 -32 -97 -61 -97 -263 0 -135 3 -163 19 -193 28 -54
73 -75 156 -75 82 0 120 16 152 64 22 32 23 43 23 206 0 163 -1 174 -23 206
-12 19 -35 40 -51 48 -42 20 -135 24 -179 7z m123 -96 c18 -18 20 -33 20 -165
0 -132 -2 -147 -20 -165 -28 -28 -64 -25 -89 6 -19 24 -21 40 -21 159 0 119 2
135 21 159 25 31 61 34 89 6z"/>
<path d="M4641 7022 c-7 -13 -11 -107 -11 -261 0 -263 2 -271 60 -271 51 0 60
20 60 131 0 92 1 99 20 99 15 0 33 -25 75 -110 31 -61 62 -113 70 -117 26 -9
65 7 76 31 9 19 3 37 -35 114 l-45 90 39 40 c39 38 40 42 40 106 0 131 -36
158 -217 164 -114 4 -122 3 -132 -16z m217 -88 c17 -12 22 -25 22 -59 0 -54
-25 -75 -87 -75 l-43 0 0 75 0 75 43 0 c23 0 53 -7 65 -16z"/>
<path d="M5043 7030 c-14 -6 -23 -18 -23 -31 0 -11 33 -78 73 -148 l72 -126 5
-110 c5 -107 6 -110 31 -119 14 -5 38 -6 53 -2 l26 6 0 104 0 104 75 131 c41
71 75 139 75 150 0 25 -32 43 -68 39 -22 -3 -35 -18 -77 -97 -28 -51 -55 -93
-60 -93 -4 0 -31 45 -59 99 -54 104 -69 115 -123 93z"/>
<path d="M3023 7008 c-4 -7 -13 -35 -18 -63 -10 -50 -10 -50 -55 -55 -44 -5
-45 -6 -45 -40 0 -33 2 -35 38 -38 30 -3 37 -7 33 -18 -3 -9 -6 -26 -6 -39 0
-21 -5 -24 -47 -27 -48 -3 -48 -3 -48 -38 0 -33 2 -35 38 -38 38 -3 38 -3 31
-40 -3 -20 -8 -44 -10 -53 -10 -35 49 -63 84 -41 7 5 17 36 23 70 11 59 12 62
40 62 l29 0 -7 -61 c-7 -67 0 -79 48 -79 36 0 46 15 54 82 l7 57 47 3 c45 3
46 3 46 38 0 33 -2 35 -38 38 -39 3 -40 8 -22 69 2 6 23 13 47 15 42 3 43 4
43 38 0 33 -2 35 -38 38 -37 3 -38 4 -32 35 4 18 9 39 11 48 11 41 -75 69 -94
32 -5 -10 -13 -39 -16 -65 -7 -45 -9 -48 -37 -48 l-30 0 7 56 c5 43 3 58 -7
65 -21 13 -67 11 -76 -3z m117 -207 c0 -5 -3 -23 -6 -40 -6 -26 -11 -31 -35
-31 -31 0 -32 2 -23 49 6 26 11 31 35 31 16 0 29 -4 29 -9z"/>
</g>
</svg>
